<?xml version="1.0" encoding="UTF-8"?>

<!DOCTYPE svg PUBLIC '-//W3C//DTD SVG 1.0//EN' 'http://www.w3.org/TR/2001/REC-SVG-20010904/DTD/svg10.dtd'>
<svg stroke-dasharray="none" shape-rendering="auto" xmlns="http://www.w3.org/2000/svg" font-family="&apos;Arial&apos;" text-rendering="auto" width="3.59375in" fill-opacity="1" color-interpolation="auto" color-rendering="auto" font-size="12" viewBox="200 132 345 293" fill="black" xmlns:xlink="http://www.w3.org/1999/xlink" stroke="black" image-rendering="auto" stroke-miterlimit="10" stroke-linecap="square" stroke-linejoin="miter" font-style="normal" stroke-width="1" height="3.0520833333333335in" stroke-dashoffset="0" font-weight="normal" stroke-opacity="1">
  <!--Generated by the Batik Graphics2D SVG Generator-->
  <defs id="genericDefs" />
  <g>
    <defs id="defs1">
      <clipPath clipPathUnits="userSpaceOnUse" id="clipPath1">
        <path d="M200 132 L545 132 L545 425 L200 425 L200 132 Z" />
      </clipPath>
    </defs>
    <g fill="white" stroke="white">
      <rect x="200" y="132" clip-path="url(#clipPath1)" width="345" height="293" stroke="none" />
    </g>
    <g fill="rgb(255,204,153)" text-rendering="optimizeLegibility" shape-rendering="geometricPrecision" stroke="rgb(255,204,153)">
      <rect x="210" y="147" clip-path="url(#clipPath1)" width="91" height="75" stroke="none" />
      <rect x="210" y="147" clip-path="url(#clipPath1)" fill="none" width="91" height="75" stroke="rgb(66,66,66)" />
      <path fill="black" d="M239.78125 160.497802734375 L239.78125 152.622802734375 L242.15625 152.622802734375 L243.59375 157.997802734375 L245 152.622802734375 L247.390625 152.622802734375 L247.390625 160.497802734375 L245.90625 160.497802734375 L245.90625 154.294677734375 L244.34375 160.497802734375 L242.8125 160.497802734375 L241.25 154.294677734375 L241.25 160.497802734375 L239.78125 160.497802734375 ZM249.4375 157.560302734375 Q249.4375 156.810302734375 249.8125 156.107177734375 Q250.1875 155.404052734375 250.8671875 155.036865234375 Q251.546875 154.669677734375 252.375 154.669677734375 Q253.671875 154.669677734375 254.5 155.505615234375 Q255.328125 156.341552734375 255.328125 157.622802734375 Q255.328125 158.919677734375 254.4921875 159.771240234375 Q253.65625 160.622802734375 252.390625 160.622802734375 Q251.609375 160.622802734375 250.8984375 160.271240234375 Q250.1875 159.919677734375 249.8125 159.232177734375 Q249.4375 158.544677734375 249.4375 157.560302734375 ZM250.984375 157.638427734375 Q250.984375 158.497802734375 251.390625 158.950927734375 Q251.796875 159.404052734375 252.390625 159.404052734375 Q252.96875 159.404052734375 253.375 158.950927734375 Q253.78125 158.497802734375 253.78125 157.638427734375 Q253.78125 156.794677734375 253.375 156.341552734375 Q252.96875 155.888427734375 252.390625 155.888427734375 Q251.796875 155.888427734375 251.390625 156.341552734375 Q250.984375 156.794677734375 250.984375 157.638427734375 ZM258.359375 160.497802734375 L256.0625 154.794677734375 L257.640625 154.794677734375 L258.71875 157.700927734375 L259.03125 158.669677734375 Q259.15625 158.310302734375 259.1875 158.185302734375 Q259.265625 157.950927734375 259.34375 157.700927734375 L260.4375 154.794677734375 L261.984375 154.794677734375 L259.71875 160.497802734375 L258.359375 160.497802734375 ZM262.796875 154.013427734375 L262.796875 152.622802734375 L264.296875 152.622802734375 L264.296875 154.013427734375 L262.796875 154.013427734375 ZM262.796875 160.497802734375 L262.796875 154.794677734375 L264.296875 154.794677734375 L264.296875 160.497802734375 L262.796875 160.497802734375 ZM269.09375 158.685302734375 L270.59375 158.935302734375 Q270.3125 159.763427734375 269.6875 160.193115234375 Q269.0625 160.622802734375 268.109375 160.622802734375 Q266.625 160.622802734375 265.90625 159.654052734375 Q265.34375 158.872802734375 265.34375 157.685302734375 Q265.34375 156.263427734375 266.0859375 155.466552734375 Q266.828125 154.669677734375 267.96875 154.669677734375 Q269.234375 154.669677734375 269.96875 155.505615234375 Q270.703125 156.341552734375 270.671875 158.075927734375 L266.890625 158.075927734375 Q266.90625 158.747802734375 267.2578125 159.122802734375 Q267.609375 159.497802734375 268.125 159.497802734375 Q268.484375 159.497802734375 268.7265625 159.302490234375 Q268.96875 159.107177734375 269.09375 158.685302734375 ZM269.171875 157.154052734375 Q269.15625 156.497802734375 268.8359375 156.161865234375 Q268.515625 155.825927734375 268.0625 155.825927734375 Q267.5625 155.825927734375 267.234375 156.185302734375 Q266.921875 156.544677734375 266.921875 157.154052734375 L269.171875 157.154052734375 Z" clip-path="url(#clipPath1)" stroke="none" />
      <line clip-path="url(#clipPath1)" fill="none" x1="210" x2="301" y1="168" y2="168" stroke="rgb(66,66,66)" />
      <path fill="rgb(40,0,0)" d="M213.34375 179.138427734375 L213.34375 178.169677734375 L216.3125 178.169677734375 L216.3125 179.138427734375 L213.34375 179.138427734375 ZM219.84375 180.638427734375 L219.96875 181.482177734375 Q219.5625 181.575927734375 219.25 181.575927734375 Q218.71875 181.575927734375 218.4296875 181.404052734375 Q218.140625 181.232177734375 218.0234375 180.966552734375 Q217.90625 180.700927734375 217.90625 179.825927734375 L217.90625 176.544677734375 L217.1875 176.544677734375 L217.1875 175.794677734375 L217.90625 175.794677734375 L217.90625 174.388427734375 L218.859375 173.794677734375 L218.859375 175.794677734375 L219.84375 175.794677734375 L219.84375 176.544677734375 L218.859375 176.544677734375 L218.859375 179.888427734375 Q218.859375 180.294677734375 218.9140625 180.411865234375 Q218.96875 180.529052734375 219.0859375 180.599365234375 Q219.203125 180.669677734375 219.40625 180.669677734375 Q219.578125 180.669677734375 219.84375 180.638427734375 ZM220.734375 174.732177734375 L220.734375 173.622802734375 L221.703125 173.622802734375 L221.703125 174.732177734375 L220.734375 174.732177734375 ZM220.734375 181.497802734375 L220.734375 175.794677734375 L221.703125 175.794677734375 L221.703125 181.497802734375 L220.734375 181.497802734375 ZM224.84375 180.638427734375 L224.96875 181.482177734375 Q224.5625 181.575927734375 224.25 181.575927734375 Q223.71875 181.575927734375 223.4296875 181.404052734375 Q223.140625 181.232177734375 223.0234375 180.966552734375 Q222.90625 180.700927734375 222.90625 179.825927734375 L222.90625 176.544677734375 L222.1875 176.544677734375 L222.1875 175.794677734375 L222.90625 175.794677734375 L222.90625 174.388427734375 L223.859375 173.794677734375 L223.859375 175.794677734375 L224.84375 175.794677734375 L224.84375 176.544677734375 L223.859375 176.544677734375 L223.859375 179.888427734375 Q223.859375 180.294677734375 223.9140625 180.411865234375 Q223.96875 180.529052734375 224.0859375 180.599365234375 Q224.203125 180.669677734375 224.40625 180.669677734375 Q224.578125 180.669677734375 224.84375 180.638427734375 ZM225.703125 181.497802734375 L225.703125 173.622802734375 L226.671875 173.622802734375 L226.671875 181.497802734375 L225.703125 181.497802734375 ZM231.625 179.654052734375 L232.625 179.779052734375 Q232.390625 180.654052734375 231.75 181.138427734375 Q231.109375 181.622802734375 230.125 181.622802734375 Q228.875 181.622802734375 228.140625 180.857177734375 Q227.40625 180.091552734375 227.40625 178.700927734375 Q227.40625 177.247802734375 228.1484375 176.458740234375 Q228.890625 175.669677734375 230.0625 175.669677734375 Q231.21875 175.669677734375 231.9375 176.443115234375 Q232.65625 177.216552734375 232.65625 178.638427734375 Q232.65625 178.716552734375 232.65625 178.888427734375 L228.40625 178.888427734375 Q228.453125 179.825927734375 228.9296875 180.325927734375 Q229.40625 180.825927734375 230.125 180.825927734375 Q230.65625 180.825927734375 231.03125 180.552490234375 Q231.40625 180.279052734375 231.625 179.654052734375 ZM228.453125 178.091552734375 L231.640625 178.091552734375 Q231.578125 177.372802734375 231.28125 177.013427734375 Q230.8125 176.466552734375 230.078125 176.466552734375 Q229.40625 176.466552734375 228.953125 176.911865234375 Q228.5 177.357177734375 228.453125 178.091552734375 ZM237 176.888427734375 L237 175.794677734375 L238.09375 175.794677734375 L238.09375 176.888427734375 L237 176.888427734375 ZM237 181.497802734375 L237 180.404052734375 L238.09375 180.404052734375 L238.09375 181.497802734375 L237 181.497802734375 ZM242.5 178.966552734375 L243.484375 178.888427734375 Q243.546875 179.466552734375 243.8046875 179.849365234375 Q244.0625 180.232177734375 244.59375 180.466552734375 Q245.125 180.700927734375 245.796875 180.700927734375 Q246.40625 180.700927734375 246.859375 180.521240234375 Q247.3125 180.341552734375 247.5390625 180.036865234375 Q247.765625 179.732177734375 247.765625 179.357177734375 Q247.765625 178.982177734375 247.546875 178.708740234375 Q247.328125 178.435302734375 246.828125 178.247802734375 Q246.515625 178.122802734375 245.4296875 177.864990234375 Q244.34375 177.607177734375 243.90625 177.372802734375 Q243.34375 177.075927734375 243.0703125 176.638427734375 Q242.796875 176.200927734375 242.796875 175.654052734375 Q242.796875 175.060302734375 243.1328125 174.544677734375 Q243.46875 174.029052734375 244.1171875 173.755615234375 Q244.765625 173.482177734375 245.5625 173.482177734375 Q246.4375 173.482177734375 247.109375 173.771240234375 Q247.78125 174.060302734375 248.140625 174.607177734375 Q248.5 175.154052734375 248.53125 175.841552734375 L247.53125 175.919677734375 Q247.453125 175.169677734375 246.984375 174.786865234375 Q246.515625 174.404052734375 245.609375 174.404052734375 Q244.671875 174.404052734375 244.234375 174.755615234375 Q243.796875 175.107177734375 243.796875 175.591552734375 Q243.796875 176.013427734375 244.109375 176.294677734375 Q244.40625 176.560302734375 245.6796875 176.849365234375 Q246.953125 177.138427734375 247.421875 177.357177734375 Q248.109375 177.669677734375 248.4375 178.154052734375 Q248.765625 178.638427734375 248.765625 179.279052734375 Q248.765625 179.904052734375 248.40625 180.458740234375 Q248.046875 181.013427734375 247.3671875 181.325927734375 Q246.6875 181.638427734375 245.84375 181.638427734375 Q244.78125 181.638427734375 244.0625 181.325927734375 Q243.34375 181.013427734375 242.9296875 180.388427734375 Q242.515625 179.763427734375 242.5 178.966552734375 ZM251.84375 180.638427734375 L251.96875 181.482177734375 Q251.5625 181.575927734375 251.25 181.575927734375 Q250.71875 181.575927734375 250.4296875 181.404052734375 Q250.140625 181.232177734375 250.0234375 180.966552734375 Q249.90625 180.700927734375 249.90625 179.825927734375 L249.90625 176.544677734375 L249.1875 176.544677734375 L249.1875 175.794677734375 L249.90625 175.794677734375 L249.90625 174.388427734375 L250.859375 173.794677734375 L250.859375 175.794677734375 L251.84375 175.794677734375 L251.84375 176.544677734375 L250.859375 176.544677734375 L250.859375 179.888427734375 Q250.859375 180.294677734375 250.9140625 180.411865234375 Q250.96875 180.529052734375 251.0859375 180.599365234375 Q251.203125 180.669677734375 251.40625 180.669677734375 Q251.578125 180.669677734375 251.84375 180.638427734375 ZM252.71875 181.497802734375 L252.71875 175.794677734375 L253.578125 175.794677734375 L253.578125 176.654052734375 Q253.921875 176.044677734375 254.203125 175.857177734375 Q254.484375 175.669677734375 254.8125 175.669677734375 Q255.3125 175.669677734375 255.8125 175.982177734375 L255.484375 176.872802734375 Q255.125 176.669677734375 254.765625 176.669677734375 Q254.453125 176.669677734375 254.203125 176.857177734375 Q253.953125 177.044677734375 253.84375 177.388427734375 Q253.6875 177.904052734375 253.6875 178.513427734375 L253.6875 181.497802734375 L252.71875 181.497802734375 ZM256.734375 174.732177734375 L256.734375 173.622802734375 L257.703125 173.622802734375 L257.703125 174.732177734375 L256.734375 174.732177734375 ZM256.734375 181.497802734375 L256.734375 175.794677734375 L257.703125 175.794677734375 L257.703125 181.497802734375 L256.734375 181.497802734375 ZM258.71875 181.497802734375 L258.71875 175.794677734375 L259.59375 175.794677734375 L259.59375 176.607177734375 Q260.21875 175.669677734375 261.40625 175.669677734375 Q261.921875 175.669677734375 262.359375 175.849365234375 Q262.796875 176.029052734375 263.0078125 176.333740234375 Q263.21875 176.638427734375 263.3125 177.044677734375 Q263.359375 177.325927734375 263.359375 177.997802734375 L263.359375 181.497802734375 L262.390625 181.497802734375 L262.390625 178.029052734375 Q262.390625 177.435302734375 262.28125 177.146240234375 Q262.171875 176.857177734375 261.8828125 176.677490234375 Q261.59375 176.497802734375 261.203125 176.497802734375 Q260.59375 176.497802734375 260.140625 176.888427734375 Q259.6875 177.279052734375 259.6875 178.388427734375 L259.6875 181.497802734375 L258.71875 181.497802734375 ZM264.546875 181.966552734375 L265.484375 182.107177734375 Q265.546875 182.544677734375 265.8125 182.747802734375 Q266.171875 183.013427734375 266.796875 183.013427734375 Q267.46875 183.013427734375 267.8359375 182.747802734375 Q268.203125 182.482177734375 268.328125 181.997802734375 Q268.40625 181.700927734375 268.40625 180.747802734375 Q267.765625 181.497802734375 266.8125 181.497802734375 Q265.640625 181.497802734375 265 180.646240234375 Q264.359375 179.794677734375 264.359375 178.607177734375 Q264.359375 177.794677734375 264.65625 177.107177734375 Q264.953125 176.419677734375 265.5078125 176.044677734375 Q266.0625 175.669677734375 266.828125 175.669677734375 Q267.828125 175.669677734375 268.484375 176.482177734375 L268.484375 175.794677734375 L269.375 175.794677734375 L269.375 180.716552734375 Q269.375 182.060302734375 269.109375 182.614990234375 Q268.84375 183.169677734375 268.25 183.489990234375 Q267.65625 183.810302734375 266.796875 183.810302734375 Q265.78125 183.810302734375 265.15625 183.349365234375 Q264.53125 182.888427734375 264.546875 181.966552734375 ZM265.34375 178.544677734375 Q265.34375 179.669677734375 265.7890625 180.185302734375 Q266.234375 180.700927734375 266.90625 180.700927734375 Q267.578125 180.700927734375 268.03125 180.185302734375 Q268.484375 179.669677734375 268.484375 178.575927734375 Q268.484375 177.529052734375 268.015625 176.997802734375 Q267.546875 176.466552734375 266.890625 176.466552734375 Q266.25 176.466552734375 265.796875 176.989990234375 Q265.34375 177.513427734375 265.34375 178.544677734375 Z" clip-path="url(#clipPath1)" stroke="none" />
      <path fill="rgb(40,0,0)" d="M213.34375 191.138427734375 L213.34375 190.169677734375 L216.3125 190.169677734375 L216.3125 191.138427734375 L213.34375 191.138427734375 ZM217.6875 195.700927734375 L217.578125 194.794677734375 Q217.890625 194.872802734375 218.125 194.872802734375 Q218.453125 194.872802734375 218.6484375 194.763427734375 Q218.84375 194.654052734375 218.953125 194.466552734375 Q219.046875 194.325927734375 219.25 193.747802734375 Q219.28125 193.669677734375 219.34375 193.513427734375 L217.171875 187.794677734375 L218.21875 187.794677734375 L219.40625 191.091552734375 Q219.640625 191.732177734375 219.8125 192.419677734375 Q219.984375 191.747802734375 220.21875 191.122802734375 L221.4375 187.794677734375 L222.40625 187.794677734375 L220.234375 193.591552734375 Q219.890625 194.529052734375 219.6875 194.888427734375 Q219.4375 195.372802734375 219.1015625 195.591552734375 Q218.765625 195.810302734375 218.3125 195.810302734375 Q218.03125 195.810302734375 217.6875 195.700927734375 ZM227.625 191.654052734375 L228.625 191.779052734375 Q228.390625 192.654052734375 227.75 193.138427734375 Q227.109375 193.622802734375 226.125 193.622802734375 Q224.875 193.622802734375 224.140625 192.857177734375 Q223.40625 192.091552734375 223.40625 190.700927734375 Q223.40625 189.247802734375 224.1484375 188.458740234375 Q224.890625 187.669677734375 226.0625 187.669677734375 Q227.21875 187.669677734375 227.9375 188.443115234375 Q228.65625 189.216552734375 228.65625 190.638427734375 Q228.65625 190.716552734375 228.65625 190.888427734375 L224.40625 190.888427734375 Q224.453125 191.825927734375 224.9296875 192.325927734375 Q225.40625 192.825927734375 226.125 192.825927734375 Q226.65625 192.825927734375 227.03125 192.552490234375 Q227.40625 192.279052734375 227.625 191.654052734375 ZM224.453125 190.091552734375 L227.640625 190.091552734375 Q227.578125 189.372802734375 227.28125 189.013427734375 Q226.8125 188.466552734375 226.078125 188.466552734375 Q225.40625 188.466552734375 224.953125 188.911865234375 Q224.5 189.357177734375 224.453125 190.091552734375 ZM233.453125 192.794677734375 Q232.90625 193.247802734375 232.4140625 193.435302734375 Q231.921875 193.622802734375 231.34375 193.622802734375 Q230.40625 193.622802734375 229.8984375 193.161865234375 Q229.390625 192.700927734375 229.390625 191.997802734375 Q229.390625 191.575927734375 229.5859375 191.232177734375 Q229.78125 190.888427734375 230.0859375 190.677490234375 Q230.390625 190.466552734375 230.78125 190.357177734375 Q231.0625 190.279052734375 231.640625 190.216552734375 Q232.8125 190.075927734375 233.359375 189.872802734375 Q233.375 189.685302734375 233.375 189.622802734375 Q233.375 189.029052734375 233.09375 188.794677734375 Q232.734375 188.466552734375 232 188.466552734375 Q231.3125 188.466552734375 230.9921875 188.700927734375 Q230.671875 188.935302734375 230.515625 189.544677734375 L229.5625 189.419677734375 Q229.6875 188.810302734375 229.984375 188.435302734375 Q230.28125 188.060302734375 230.84375 187.864990234375 Q231.40625 187.669677734375 232.140625 187.669677734375 Q232.875 187.669677734375 233.328125 187.841552734375 Q233.78125 188.013427734375 233.9921875 188.271240234375 Q234.203125 188.529052734375 234.296875 188.919677734375 Q234.34375 189.169677734375 234.34375 189.825927734375 L234.34375 191.107177734375 Q234.34375 192.450927734375 234.40625 192.810302734375 Q234.46875 193.169677734375 234.65625 193.497802734375 L233.640625 193.497802734375 Q233.484375 193.200927734375 233.453125 192.794677734375 ZM233.359375 190.638427734375 Q232.84375 190.857177734375 231.78125 190.997802734375 Q231.1875 191.091552734375 230.9453125 191.193115234375 Q230.703125 191.294677734375 230.5625 191.505615234375 Q230.421875 191.716552734375 230.421875 191.966552734375 Q230.421875 192.357177734375 230.71875 192.614990234375 Q231.015625 192.872802734375 231.578125 192.872802734375 Q232.140625 192.872802734375 232.5703125 192.622802734375 Q233 192.372802734375 233.21875 191.950927734375 Q233.359375 191.622802734375 233.359375 190.982177734375 L233.359375 190.638427734375 ZM235.71875 193.497802734375 L235.71875 187.794677734375 L236.578125 187.794677734375 L236.578125 188.654052734375 Q236.921875 188.044677734375 237.203125 187.857177734375 Q237.484375 187.669677734375 237.8125 187.669677734375 Q238.3125 187.669677734375 238.8125 187.982177734375 L238.484375 188.872802734375 Q238.125 188.669677734375 237.765625 188.669677734375 Q237.453125 188.669677734375 237.203125 188.857177734375 Q236.953125 189.044677734375 236.84375 189.388427734375 Q236.6875 189.904052734375 236.6875 190.513427734375 L236.6875 193.497802734375 L235.71875 193.497802734375 ZM243 188.888427734375 L243 187.794677734375 L244.09375 187.794677734375 L244.09375 188.888427734375 L243 188.888427734375 ZM243 193.497802734375 L243 192.404052734375 L244.09375 192.404052734375 L244.09375 193.497802734375 L243 193.497802734375 ZM248.734375 186.732177734375 L248.734375 185.622802734375 L249.703125 185.622802734375 L249.703125 186.732177734375 L248.734375 186.732177734375 ZM248.734375 193.497802734375 L248.734375 187.794677734375 L249.703125 187.794677734375 L249.703125 193.497802734375 L248.734375 193.497802734375 ZM250.71875 193.497802734375 L250.71875 187.794677734375 L251.59375 187.794677734375 L251.59375 188.607177734375 Q252.21875 187.669677734375 253.40625 187.669677734375 Q253.921875 187.669677734375 254.359375 187.849365234375 Q254.796875 188.029052734375 255.0078125 188.333740234375 Q255.21875 188.638427734375 255.3125 189.044677734375 Q255.359375 189.325927734375 255.359375 189.997802734375 L255.359375 193.497802734375 L254.390625 193.497802734375 L254.390625 190.029052734375 Q254.390625 189.435302734375 254.28125 189.146240234375 Q254.171875 188.857177734375 253.8828125 188.677490234375 Q253.59375 188.497802734375 253.203125 188.497802734375 Q252.59375 188.497802734375 252.140625 188.888427734375 Q251.6875 189.279052734375 251.6875 190.388427734375 L251.6875 193.497802734375 L250.71875 193.497802734375 ZM258.84375 192.638427734375 L258.96875 193.482177734375 Q258.5625 193.575927734375 258.25 193.575927734375 Q257.71875 193.575927734375 257.4296875 193.404052734375 Q257.140625 193.232177734375 257.0234375 192.966552734375 Q256.90625 192.700927734375 256.90625 191.825927734375 L256.90625 188.544677734375 L256.1875 188.544677734375 L256.1875 187.794677734375 L256.90625 187.794677734375 L256.90625 186.388427734375 L257.859375 185.794677734375 L257.859375 187.794677734375 L258.84375 187.794677734375 L258.84375 188.544677734375 L257.859375 188.544677734375 L257.859375 191.888427734375 Q257.859375 192.294677734375 257.9140625 192.411865234375 Q257.96875 192.529052734375 258.0859375 192.599365234375 Q258.203125 192.669677734375 258.40625 192.669677734375 Q258.578125 192.669677734375 258.84375 192.638427734375 Z" clip-path="url(#clipPath1)" stroke="none" />
      <path fill="rgb(40,0,0)" d="M213.34375 203.138427734375 L213.34375 202.169677734375 L216.3125 202.169677734375 L216.3125 203.138427734375 L213.34375 203.138427734375 ZM217.703125 205.497802734375 L217.703125 197.622802734375 L218.671875 197.622802734375 L218.671875 205.497802734375 L217.703125 205.497802734375 ZM223.453125 204.794677734375 Q222.90625 205.247802734375 222.4140625 205.435302734375 Q221.921875 205.622802734375 221.34375 205.622802734375 Q220.40625 205.622802734375 219.8984375 205.161865234375 Q219.390625 204.700927734375 219.390625 203.997802734375 Q219.390625 203.575927734375 219.5859375 203.232177734375 Q219.78125 202.888427734375 220.0859375 202.677490234375 Q220.390625 202.466552734375 220.78125 202.357177734375 Q221.0625 202.279052734375 221.640625 202.216552734375 Q222.8125 202.075927734375 223.359375 201.872802734375 Q223.375 201.685302734375 223.375 201.622802734375 Q223.375 201.029052734375 223.09375 200.794677734375 Q222.734375 200.466552734375 222 200.466552734375 Q221.3125 200.466552734375 220.9921875 200.700927734375 Q220.671875 200.935302734375 220.515625 201.544677734375 L219.5625 201.419677734375 Q219.6875 200.810302734375 219.984375 200.435302734375 Q220.28125 200.060302734375 220.84375 199.864990234375 Q221.40625 199.669677734375 222.140625 199.669677734375 Q222.875 199.669677734375 223.328125 199.841552734375 Q223.78125 200.013427734375 223.9921875 200.271240234375 Q224.203125 200.529052734375 224.296875 200.919677734375 Q224.34375 201.169677734375 224.34375 201.825927734375 L224.34375 203.107177734375 Q224.34375 204.450927734375 224.40625 204.810302734375 Q224.46875 205.169677734375 224.65625 205.497802734375 L223.640625 205.497802734375 Q223.484375 205.200927734375 223.453125 204.794677734375 ZM223.359375 202.638427734375 Q222.84375 202.857177734375 221.78125 202.997802734375 Q221.1875 203.091552734375 220.9453125 203.193115234375 Q220.703125 203.294677734375 220.5625 203.505615234375 Q220.421875 203.716552734375 220.421875 203.966552734375 Q220.421875 204.357177734375 220.71875 204.614990234375 Q221.015625 204.872802734375 221.578125 204.872802734375 Q222.140625 204.872802734375 222.5703125 204.622802734375 Q223 204.372802734375 223.21875 203.950927734375 Q223.359375 203.622802734375 223.359375 202.982177734375 L223.359375 202.638427734375 ZM225.71875 205.497802734375 L225.71875 199.794677734375 L226.59375 199.794677734375 L226.59375 200.607177734375 Q227.21875 199.669677734375 228.40625 199.669677734375 Q228.921875 199.669677734375 229.359375 199.849365234375 Q229.796875 200.029052734375 230.0078125 200.333740234375 Q230.21875 200.638427734375 230.3125 201.044677734375 Q230.359375 201.325927734375 230.359375 201.997802734375 L230.359375 205.497802734375 L229.390625 205.497802734375 L229.390625 202.029052734375 Q229.390625 201.435302734375 229.28125 201.146240234375 Q229.171875 200.857177734375 228.8828125 200.677490234375 Q228.59375 200.497802734375 228.203125 200.497802734375 Q227.59375 200.497802734375 227.140625 200.888427734375 Q226.6875 201.279052734375 226.6875 202.388427734375 L226.6875 205.497802734375 L225.71875 205.497802734375 ZM231.546875 205.966552734375 L232.484375 206.107177734375 Q232.546875 206.544677734375 232.8125 206.747802734375 Q233.171875 207.013427734375 233.796875 207.013427734375 Q234.46875 207.013427734375 234.8359375 206.747802734375 Q235.203125 206.482177734375 235.328125 205.997802734375 Q235.40625 205.700927734375 235.40625 204.747802734375 Q234.765625 205.497802734375 233.8125 205.497802734375 Q232.640625 205.497802734375 232 204.646240234375 Q231.359375 203.794677734375 231.359375 202.607177734375 Q231.359375 201.794677734375 231.65625 201.107177734375 Q231.953125 200.419677734375 232.5078125 200.044677734375 Q233.0625 199.669677734375 233.828125 199.669677734375 Q234.828125 199.669677734375 235.484375 200.482177734375 L235.484375 199.794677734375 L236.375 199.794677734375 L236.375 204.716552734375 Q236.375 206.060302734375 236.109375 206.614990234375 Q235.84375 207.169677734375 235.25 207.489990234375 Q234.65625 207.810302734375 233.796875 207.810302734375 Q232.78125 207.810302734375 232.15625 207.349365234375 Q231.53125 206.888427734375 231.546875 205.966552734375 ZM232.34375 202.544677734375 Q232.34375 203.669677734375 232.7890625 204.185302734375 Q233.234375 204.700927734375 233.90625 204.700927734375 Q234.578125 204.700927734375 235.03125 204.185302734375 Q235.484375 203.669677734375 235.484375 202.575927734375 Q235.484375 201.529052734375 235.015625 200.997802734375 Q234.546875 200.466552734375 233.890625 200.466552734375 Q233.25 200.466552734375 232.796875 200.989990234375 Q232.34375 201.513427734375 232.34375 202.544677734375 ZM241.46875 205.497802734375 L241.46875 204.654052734375 Q240.796875 205.622802734375 239.65625 205.622802734375 Q239.15625 205.622802734375 238.7109375 205.427490234375 Q238.265625 205.232177734375 238.0546875 204.943115234375 Q237.84375 204.654052734375 237.765625 204.232177734375 Q237.703125 203.950927734375 237.703125 203.325927734375 L237.703125 199.794677734375 L238.671875 199.794677734375 L238.671875 202.950927734375 Q238.671875 203.716552734375 238.734375 203.982177734375 Q238.828125 204.357177734375 239.1171875 204.575927734375 Q239.40625 204.794677734375 239.84375 204.794677734375 Q240.28125 204.794677734375 240.6640625 204.568115234375 Q241.046875 204.341552734375 241.203125 203.958740234375 Q241.359375 203.575927734375 241.359375 202.857177734375 L241.359375 199.794677734375 L242.328125 199.794677734375 L242.328125 205.497802734375 L241.46875 205.497802734375 ZM247.453125 204.794677734375 Q246.90625 205.247802734375 246.4140625 205.435302734375 Q245.921875 205.622802734375 245.34375 205.622802734375 Q244.40625 205.622802734375 243.8984375 205.161865234375 Q243.390625 204.700927734375 243.390625 203.997802734375 Q243.390625 203.575927734375 243.5859375 203.232177734375 Q243.78125 202.888427734375 244.0859375 202.677490234375 Q244.390625 202.466552734375 244.78125 202.357177734375 Q245.0625 202.279052734375 245.640625 202.216552734375 Q246.8125 202.075927734375 247.359375 201.872802734375 Q247.375 201.685302734375 247.375 201.622802734375 Q247.375 201.029052734375 247.09375 200.794677734375 Q246.734375 200.466552734375 246 200.466552734375 Q245.3125 200.466552734375 244.9921875 200.700927734375 Q244.671875 200.935302734375 244.515625 201.544677734375 L243.5625 201.419677734375 Q243.6875 200.810302734375 243.984375 200.435302734375 Q244.28125 200.060302734375 244.84375 199.864990234375 Q245.40625 199.669677734375 246.140625 199.669677734375 Q246.875 199.669677734375 247.328125 199.841552734375 Q247.78125 200.013427734375 247.9921875 200.271240234375 Q248.203125 200.529052734375 248.296875 200.919677734375 Q248.34375 201.169677734375 248.34375 201.825927734375 L248.34375 203.107177734375 Q248.34375 204.450927734375 248.40625 204.810302734375 Q248.46875 205.169677734375 248.65625 205.497802734375 L247.640625 205.497802734375 Q247.484375 205.200927734375 247.453125 204.794677734375 ZM247.359375 202.638427734375 Q246.84375 202.857177734375 245.78125 202.997802734375 Q245.1875 203.091552734375 244.9453125 203.193115234375 Q244.703125 203.294677734375 244.5625 203.505615234375 Q244.421875 203.716552734375 244.421875 203.966552734375 Q244.421875 204.357177734375 244.71875 204.614990234375 Q245.015625 204.872802734375 245.578125 204.872802734375 Q246.140625 204.872802734375 246.5703125 204.622802734375 Q247 204.372802734375 247.21875 203.950927734375 Q247.359375 203.622802734375 247.359375 202.982177734375 L247.359375 202.638427734375 ZM249.546875 205.966552734375 L250.484375 206.107177734375 Q250.546875 206.544677734375 250.8125 206.747802734375 Q251.171875 207.013427734375 251.796875 207.013427734375 Q252.46875 207.013427734375 252.8359375 206.747802734375 Q253.203125 206.482177734375 253.328125 205.997802734375 Q253.40625 205.700927734375 253.40625 204.747802734375 Q252.765625 205.497802734375 251.8125 205.497802734375 Q250.640625 205.497802734375 250 204.646240234375 Q249.359375 203.794677734375 249.359375 202.607177734375 Q249.359375 201.794677734375 249.65625 201.107177734375 Q249.953125 200.419677734375 250.5078125 200.044677734375 Q251.0625 199.669677734375 251.828125 199.669677734375 Q252.828125 199.669677734375 253.484375 200.482177734375 L253.484375 199.794677734375 L254.375 199.794677734375 L254.375 204.716552734375 Q254.375 206.060302734375 254.109375 206.614990234375 Q253.84375 207.169677734375 253.25 207.489990234375 Q252.65625 207.810302734375 251.796875 207.810302734375 Q250.78125 207.810302734375 250.15625 207.349365234375 Q249.53125 206.888427734375 249.546875 205.966552734375 ZM250.34375 202.544677734375 Q250.34375 203.669677734375 250.7890625 204.185302734375 Q251.234375 204.700927734375 251.90625 204.700927734375 Q252.578125 204.700927734375 253.03125 204.185302734375 Q253.484375 203.669677734375 253.484375 202.575927734375 Q253.484375 201.529052734375 253.015625 200.997802734375 Q252.546875 200.466552734375 251.890625 200.466552734375 Q251.25 200.466552734375 250.796875 200.989990234375 Q250.34375 201.513427734375 250.34375 202.544677734375 ZM259.625 203.654052734375 L260.625 203.779052734375 Q260.390625 204.654052734375 259.75 205.138427734375 Q259.109375 205.622802734375 258.125 205.622802734375 Q256.875 205.622802734375 256.140625 204.857177734375 Q255.40625 204.091552734375 255.40625 202.700927734375 Q255.40625 201.247802734375 256.1484375 200.458740234375 Q256.890625 199.669677734375 258.0625 199.669677734375 Q259.21875 199.669677734375 259.9375 200.443115234375 Q260.65625 201.216552734375 260.65625 202.638427734375 Q260.65625 202.716552734375 260.65625 202.888427734375 L256.40625 202.888427734375 Q256.453125 203.825927734375 256.9296875 204.325927734375 Q257.40625 204.825927734375 258.125 204.825927734375 Q258.65625 204.825927734375 259.03125 204.552490234375 Q259.40625 204.279052734375 259.625 203.654052734375 ZM256.453125 202.091552734375 L259.640625 202.091552734375 Q259.578125 201.372802734375 259.28125 201.013427734375 Q258.8125 200.466552734375 258.078125 200.466552734375 Q257.40625 200.466552734375 256.953125 200.911865234375 Q256.5 201.357177734375 256.453125 202.091552734375 ZM265 200.888427734375 L265 199.794677734375 L266.09375 199.794677734375 L266.09375 200.888427734375 L265 200.888427734375 ZM265 205.497802734375 L265 204.404052734375 L266.09375 204.404052734375 L266.09375 205.497802734375 L265 205.497802734375 ZM270.5 202.966552734375 L271.484375 202.888427734375 Q271.546875 203.466552734375 271.8046875 203.849365234375 Q272.0625 204.232177734375 272.59375 204.466552734375 Q273.125 204.700927734375 273.796875 204.700927734375 Q274.40625 204.700927734375 274.859375 204.521240234375 Q275.3125 204.341552734375 275.5390625 204.036865234375 Q275.765625 203.732177734375 275.765625 203.357177734375 Q275.765625 202.982177734375 275.546875 202.708740234375 Q275.328125 202.435302734375 274.828125 202.247802734375 Q274.515625 202.122802734375 273.4296875 201.864990234375 Q272.34375 201.607177734375 271.90625 201.372802734375 Q271.34375 201.075927734375 271.0703125 200.638427734375 Q270.796875 200.200927734375 270.796875 199.654052734375 Q270.796875 199.060302734375 271.1328125 198.544677734375 Q271.46875 198.029052734375 272.1171875 197.755615234375 Q272.765625 197.482177734375 273.5625 197.482177734375 Q274.4375 197.482177734375 275.109375 197.771240234375 Q275.78125 198.060302734375 276.140625 198.607177734375 Q276.5 199.154052734375 276.53125 199.841552734375 L275.53125 199.919677734375 Q275.453125 199.169677734375 274.984375 198.786865234375 Q274.515625 198.404052734375 273.609375 198.404052734375 Q272.671875 198.404052734375 272.234375 198.755615234375 Q271.796875 199.107177734375 271.796875 199.591552734375 Q271.796875 200.013427734375 272.109375 200.294677734375 Q272.40625 200.560302734375 273.6796875 200.849365234375 Q274.953125 201.138427734375 275.421875 201.357177734375 Q276.109375 201.669677734375 276.4375 202.154052734375 Q276.765625 202.638427734375 276.765625 203.279052734375 Q276.765625 203.904052734375 276.40625 204.458740234375 Q276.046875 205.013427734375 275.3671875 205.325927734375 Q274.6875 205.638427734375 273.84375 205.638427734375 Q272.78125 205.638427734375 272.0625 205.325927734375 Q271.34375 205.013427734375 270.9296875 204.388427734375 Q270.515625 203.763427734375 270.5 202.966552734375 ZM279.84375 204.638427734375 L279.96875 205.482177734375 Q279.5625 205.575927734375 279.25 205.575927734375 Q278.71875 205.575927734375 278.4296875 205.404052734375 Q278.140625 205.232177734375 278.0234375 204.966552734375 Q277.90625 204.700927734375 277.90625 203.825927734375 L277.90625 200.544677734375 L277.1875 200.544677734375 L277.1875 199.794677734375 L277.90625 199.794677734375 L277.90625 198.388427734375 L278.859375 197.794677734375 L278.859375 199.794677734375 L279.84375 199.794677734375 L279.84375 200.544677734375 L278.859375 200.544677734375 L278.859375 203.888427734375 Q278.859375 204.294677734375 278.9140625 204.411865234375 Q278.96875 204.529052734375 279.0859375 204.599365234375 Q279.203125 204.669677734375 279.40625 204.669677734375 Q279.578125 204.669677734375 279.84375 204.638427734375 ZM280.71875 205.497802734375 L280.71875 199.794677734375 L281.578125 199.794677734375 L281.578125 200.654052734375 Q281.921875 200.044677734375 282.203125 199.857177734375 Q282.484375 199.669677734375 282.8125 199.669677734375 Q283.3125 199.669677734375 283.8125 199.982177734375 L283.484375 200.872802734375 Q283.125 200.669677734375 282.765625 200.669677734375 Q282.453125 200.669677734375 282.203125 200.857177734375 Q281.953125 201.044677734375 281.84375 201.388427734375 Q281.6875 201.904052734375 281.6875 202.513427734375 L281.6875 205.497802734375 L280.71875 205.497802734375 ZM284.734375 198.732177734375 L284.734375 197.622802734375 L285.703125 197.622802734375 L285.703125 198.732177734375 L284.734375 198.732177734375 ZM284.734375 205.497802734375 L284.734375 199.794677734375 L285.703125 199.794677734375 L285.703125 205.497802734375 L284.734375 205.497802734375 ZM286.71875 205.497802734375 L286.71875 199.794677734375 L287.59375 199.794677734375 L287.59375 200.607177734375 Q288.21875 199.669677734375 289.40625 199.669677734375 Q289.921875 199.669677734375 290.359375 199.849365234375 Q290.796875 200.029052734375 291.0078125 200.333740234375 Q291.21875 200.638427734375 291.3125 201.044677734375 Q291.359375 201.325927734375 291.359375 201.997802734375 L291.359375 205.497802734375 L290.390625 205.497802734375 L290.390625 202.029052734375 Q290.390625 201.435302734375 290.28125 201.146240234375 Q290.171875 200.857177734375 289.8828125 200.677490234375 Q289.59375 200.497802734375 289.203125 200.497802734375 Q288.59375 200.497802734375 288.140625 200.888427734375 Q287.6875 201.279052734375 287.6875 202.388427734375 L287.6875 205.497802734375 L286.71875 205.497802734375 ZM292.546875 205.966552734375 L293.484375 206.107177734375 Q293.546875 206.544677734375 293.8125 206.747802734375 Q294.171875 207.013427734375 294.796875 207.013427734375 Q295.46875 207.013427734375 295.8359375 206.747802734375 Q296.203125 206.482177734375 296.328125 205.997802734375 Q296.40625 205.700927734375 296.40625 204.747802734375 Q295.765625 205.497802734375 294.8125 205.497802734375 Q293.640625 205.497802734375 293 204.646240234375 Q292.359375 203.794677734375 292.359375 202.607177734375 Q292.359375 201.794677734375 292.65625 201.107177734375 Q292.953125 200.419677734375 293.5078125 200.044677734375 Q294.0625 199.669677734375 294.828125 199.669677734375 Q295.828125 199.669677734375 296.484375 200.482177734375 L296.484375 199.794677734375 L297.375 199.794677734375 L297.375 204.716552734375 Q297.375 206.060302734375 297.109375 206.614990234375 Q296.84375 207.169677734375 296.25 207.489990234375 Q295.65625 207.810302734375 294.796875 207.810302734375 Q293.78125 207.810302734375 293.15625 207.349365234375 Q292.53125 206.888427734375 292.546875 205.966552734375 ZM293.34375 202.544677734375 Q293.34375 203.669677734375 293.7890625 204.185302734375 Q294.234375 204.700927734375 294.90625 204.700927734375 Q295.578125 204.700927734375 296.03125 204.185302734375 Q296.484375 203.669677734375 296.484375 202.575927734375 Q296.484375 201.529052734375 296.015625 200.997802734375 Q295.546875 200.466552734375 294.890625 200.466552734375 Q294.25 200.466552734375 293.796875 200.989990234375 Q293.34375 201.513427734375 293.34375 202.544677734375 Z" clip-path="url(#clipPath1)" stroke="none" />
      <line clip-path="url(#clipPath1)" fill="none" x1="210" x2="301" y1="213" y2="213" stroke="rgb(66,66,66)" />
      <rect x="462" y="147" clip-path="url(#clipPath1)" width="73" height="51" stroke="none" />
      <rect x="462" y="147" clip-path="url(#clipPath1)" fill="none" width="73" height="51" stroke="rgb(66,66,66)" />
      <path fill="black" d="M486.90625 160.497802734375 L485.171875 160.497802734375 L484.484375 158.716552734375 L481.34375 158.716552734375 L480.6875 160.497802734375 L479 160.497802734375 L482.0625 152.622802734375 L483.75 152.622802734375 L486.90625 160.497802734375 ZM483.96875 157.388427734375 L482.890625 154.466552734375 L481.828125 157.388427734375 L483.96875 157.388427734375 ZM491.546875 160.497802734375 L491.546875 159.638427734375 Q491.234375 160.107177734375 490.7265625 160.364990234375 Q490.21875 160.622802734375 489.65625 160.622802734375 Q489.078125 160.622802734375 488.625 160.372802734375 Q488.171875 160.122802734375 487.9609375 159.661865234375 Q487.75 159.200927734375 487.75 158.404052734375 L487.75 154.794677734375 L489.265625 154.794677734375 L489.265625 157.419677734375 Q489.265625 158.622802734375 489.3515625 158.888427734375 Q489.4375 159.154052734375 489.65625 159.318115234375 Q489.875 159.482177734375 490.21875 159.482177734375 Q490.59375 159.482177734375 490.90625 159.271240234375 Q491.21875 159.060302734375 491.328125 158.739990234375 Q491.4375 158.419677734375 491.4375 157.200927734375 L491.4375 154.794677734375 L492.953125 154.794677734375 L492.953125 160.497802734375 L491.546875 160.497802734375 ZM497.40625 154.794677734375 L497.40625 155.997802734375 L496.375 155.997802734375 L496.375 158.294677734375 Q496.375 158.997802734375 496.40625 159.114990234375 Q496.4375 159.232177734375 496.5390625 159.302490234375 Q496.640625 159.372802734375 496.796875 159.372802734375 Q497 159.372802734375 497.40625 159.232177734375 L497.53125 160.404052734375 Q497 160.622802734375 496.34375 160.622802734375 Q495.921875 160.622802734375 495.59375 160.489990234375 Q495.265625 160.357177734375 495.1171875 160.138427734375 Q494.96875 159.919677734375 494.90625 159.544677734375 Q494.859375 159.279052734375 494.859375 158.482177734375 L494.859375 155.997802734375 L494.171875 155.997802734375 L494.171875 154.794677734375 L494.859375 154.794677734375 L494.859375 153.654052734375 L496.375 152.779052734375 L496.375 154.794677734375 L497.40625 154.794677734375 ZM500.296875 152.622802734375 L500.296875 155.513427734375 Q501.03125 154.669677734375 502.046875 154.669677734375 Q502.5625 154.669677734375 502.9765625 154.857177734375 Q503.390625 155.044677734375 503.609375 155.349365234375 Q503.828125 155.654052734375 503.90625 156.021240234375 Q503.984375 156.388427734375 503.984375 157.154052734375 L503.984375 160.497802734375 L502.46875 160.497802734375 L502.46875 157.482177734375 Q502.46875 156.591552734375 502.3828125 156.349365234375 Q502.296875 156.107177734375 502.078125 155.966552734375 Q501.859375 155.825927734375 501.53125 155.825927734375 Q501.15625 155.825927734375 500.859375 156.005615234375 Q500.5625 156.185302734375 500.4296875 156.552490234375 Q500.296875 156.919677734375 500.296875 157.638427734375 L500.296875 160.497802734375 L498.78125 160.497802734375 L498.78125 152.622802734375 L500.296875 152.622802734375 ZM505.4375 157.560302734375 Q505.4375 156.810302734375 505.8125 156.107177734375 Q506.1875 155.404052734375 506.8671875 155.036865234375 Q507.546875 154.669677734375 508.375 154.669677734375 Q509.671875 154.669677734375 510.5 155.505615234375 Q511.328125 156.341552734375 511.328125 157.622802734375 Q511.328125 158.919677734375 510.4921875 159.771240234375 Q509.65625 160.622802734375 508.390625 160.622802734375 Q507.609375 160.622802734375 506.8984375 160.271240234375 Q506.1875 159.919677734375 505.8125 159.232177734375 Q505.4375 158.544677734375 505.4375 157.560302734375 ZM506.984375 157.638427734375 Q506.984375 158.497802734375 507.390625 158.950927734375 Q507.796875 159.404052734375 508.390625 159.404052734375 Q508.96875 159.404052734375 509.375 158.950927734375 Q509.78125 158.497802734375 509.78125 157.638427734375 Q509.78125 156.794677734375 509.375 156.341552734375 Q508.96875 155.888427734375 508.390625 155.888427734375 Q507.796875 155.888427734375 507.390625 156.341552734375 Q506.984375 156.794677734375 506.984375 157.638427734375 ZM514.234375 160.497802734375 L512.71875 160.497802734375 L512.71875 154.794677734375 L514.125 154.794677734375 L514.125 155.607177734375 Q514.484375 155.029052734375 514.7734375 154.849365234375 Q515.0625 154.669677734375 515.421875 154.669677734375 Q515.9375 154.669677734375 516.421875 154.950927734375 L515.953125 156.263427734375 Q515.578125 156.013427734375 515.25 156.013427734375 Q514.921875 156.013427734375 514.703125 156.193115234375 Q514.484375 156.372802734375 514.359375 156.825927734375 Q514.234375 157.279052734375 514.234375 158.732177734375 L514.234375 160.497802734375 Z" clip-path="url(#clipPath1)" stroke="none" />
      <line clip-path="url(#clipPath1)" fill="none" x1="462" x2="535" y1="189" y2="189" stroke="rgb(66,66,66)" />
      <line clip-path="url(#clipPath1)" fill="none" x1="462" x2="535" y1="168" y2="168" stroke="rgb(66,66,66)" />
      <path fill="rgb(40,0,0)" d="M465.34375 179.138427734375 L465.34375 178.169677734375 L468.3125 178.169677734375 L468.3125 179.138427734375 L465.34375 179.138427734375 ZM469.71875 181.497802734375 L469.71875 175.794677734375 L470.59375 175.794677734375 L470.59375 176.607177734375 Q471.21875 175.669677734375 472.40625 175.669677734375 Q472.921875 175.669677734375 473.359375 175.849365234375 Q473.796875 176.029052734375 474.0078125 176.333740234375 Q474.21875 176.638427734375 474.3125 177.044677734375 Q474.359375 177.325927734375 474.359375 177.997802734375 L474.359375 181.497802734375 L473.390625 181.497802734375 L473.390625 178.029052734375 Q473.390625 177.435302734375 473.28125 177.146240234375 Q473.171875 176.857177734375 472.8828125 176.677490234375 Q472.59375 176.497802734375 472.203125 176.497802734375 Q471.59375 176.497802734375 471.140625 176.888427734375 Q470.6875 177.279052734375 470.6875 178.388427734375 L470.6875 181.497802734375 L469.71875 181.497802734375 ZM479.453125 180.794677734375 Q478.90625 181.247802734375 478.4140625 181.435302734375 Q477.921875 181.622802734375 477.34375 181.622802734375 Q476.40625 181.622802734375 475.8984375 181.161865234375 Q475.390625 180.700927734375 475.390625 179.997802734375 Q475.390625 179.575927734375 475.5859375 179.232177734375 Q475.78125 178.888427734375 476.0859375 178.677490234375 Q476.390625 178.466552734375 476.78125 178.357177734375 Q477.0625 178.279052734375 477.640625 178.216552734375 Q478.8125 178.075927734375 479.359375 177.872802734375 Q479.375 177.685302734375 479.375 177.622802734375 Q479.375 177.029052734375 479.09375 176.794677734375 Q478.734375 176.466552734375 478 176.466552734375 Q477.3125 176.466552734375 476.9921875 176.700927734375 Q476.671875 176.935302734375 476.515625 177.544677734375 L475.5625 177.419677734375 Q475.6875 176.810302734375 475.984375 176.435302734375 Q476.28125 176.060302734375 476.84375 175.864990234375 Q477.40625 175.669677734375 478.140625 175.669677734375 Q478.875 175.669677734375 479.328125 175.841552734375 Q479.78125 176.013427734375 479.9921875 176.271240234375 Q480.203125 176.529052734375 480.296875 176.919677734375 Q480.34375 177.169677734375 480.34375 177.825927734375 L480.34375 179.107177734375 Q480.34375 180.450927734375 480.40625 180.810302734375 Q480.46875 181.169677734375 480.65625 181.497802734375 L479.640625 181.497802734375 Q479.484375 181.200927734375 479.453125 180.794677734375 ZM479.359375 178.638427734375 Q478.84375 178.857177734375 477.78125 178.997802734375 Q477.1875 179.091552734375 476.9453125 179.193115234375 Q476.703125 179.294677734375 476.5625 179.505615234375 Q476.421875 179.716552734375 476.421875 179.966552734375 Q476.421875 180.357177734375 476.71875 180.614990234375 Q477.015625 180.872802734375 477.578125 180.872802734375 Q478.140625 180.872802734375 478.5703125 180.622802734375 Q479 180.372802734375 479.21875 179.950927734375 Q479.359375 179.622802734375 479.359375 178.982177734375 L479.359375 178.638427734375 ZM481.71875 181.497802734375 L481.71875 175.794677734375 L482.59375 175.794677734375 L482.59375 176.591552734375 Q482.859375 176.169677734375 483.3046875 175.919677734375 Q483.75 175.669677734375 484.3125 175.669677734375 Q484.953125 175.669677734375 485.359375 175.927490234375 Q485.765625 176.185302734375 485.9375 176.669677734375 Q486.609375 175.669677734375 487.6875 175.669677734375 Q488.546875 175.669677734375 489 176.138427734375 Q489.453125 176.607177734375 489.453125 177.575927734375 L489.453125 181.497802734375 L488.5 181.497802734375 L488.5 177.904052734375 Q488.5 177.325927734375 488.40625 177.068115234375 Q488.3125 176.810302734375 488.0625 176.654052734375 Q487.8125 176.497802734375 487.484375 176.497802734375 Q486.875 176.497802734375 486.4765625 176.904052734375 Q486.078125 177.310302734375 486.078125 178.185302734375 L486.078125 181.497802734375 L485.109375 181.497802734375 L485.109375 177.794677734375 Q485.109375 177.154052734375 484.875 176.825927734375 Q484.640625 176.497802734375 484.109375 176.497802734375 Q483.703125 176.497802734375 483.3515625 176.716552734375 Q483 176.935302734375 482.84375 177.349365234375 Q482.6875 177.763427734375 482.6875 178.544677734375 L482.6875 181.497802734375 L481.71875 181.497802734375 ZM493.625 179.654052734375 L494.625 179.779052734375 Q494.390625 180.654052734375 493.75 181.138427734375 Q493.109375 181.622802734375 492.125 181.622802734375 Q490.875 181.622802734375 490.140625 180.857177734375 Q489.40625 180.091552734375 489.40625 178.700927734375 Q489.40625 177.247802734375 490.1484375 176.458740234375 Q490.890625 175.669677734375 492.0625 175.669677734375 Q493.21875 175.669677734375 493.9375 176.443115234375 Q494.65625 177.216552734375 494.65625 178.638427734375 Q494.65625 178.716552734375 494.65625 178.888427734375 L490.40625 178.888427734375 Q490.453125 179.825927734375 490.9296875 180.325927734375 Q491.40625 180.825927734375 492.125 180.825927734375 Q492.65625 180.825927734375 493.03125 180.552490234375 Q493.40625 180.279052734375 493.625 179.654052734375 ZM490.453125 178.091552734375 L493.640625 178.091552734375 Q493.578125 177.372802734375 493.28125 177.013427734375 Q492.8125 176.466552734375 492.078125 176.466552734375 Q491.40625 176.466552734375 490.953125 176.911865234375 Q490.5 177.357177734375 490.453125 178.091552734375 ZM499 176.888427734375 L499 175.794677734375 L500.09375 175.794677734375 L500.09375 176.888427734375 L499 176.888427734375 ZM499 181.497802734375 L499 180.404052734375 L500.09375 180.404052734375 L500.09375 181.497802734375 L499 181.497802734375 ZM504.5 178.966552734375 L505.484375 178.888427734375 Q505.546875 179.466552734375 505.8046875 179.849365234375 Q506.0625 180.232177734375 506.59375 180.466552734375 Q507.125 180.700927734375 507.796875 180.700927734375 Q508.40625 180.700927734375 508.859375 180.521240234375 Q509.3125 180.341552734375 509.5390625 180.036865234375 Q509.765625 179.732177734375 509.765625 179.357177734375 Q509.765625 178.982177734375 509.546875 178.708740234375 Q509.328125 178.435302734375 508.828125 178.247802734375 Q508.515625 178.122802734375 507.4296875 177.864990234375 Q506.34375 177.607177734375 505.90625 177.372802734375 Q505.34375 177.075927734375 505.0703125 176.638427734375 Q504.796875 176.200927734375 504.796875 175.654052734375 Q504.796875 175.060302734375 505.1328125 174.544677734375 Q505.46875 174.029052734375 506.1171875 173.755615234375 Q506.765625 173.482177734375 507.5625 173.482177734375 Q508.4375 173.482177734375 509.109375 173.771240234375 Q509.78125 174.060302734375 510.140625 174.607177734375 Q510.5 175.154052734375 510.53125 175.841552734375 L509.53125 175.919677734375 Q509.453125 175.169677734375 508.984375 174.786865234375 Q508.515625 174.404052734375 507.609375 174.404052734375 Q506.671875 174.404052734375 506.234375 174.755615234375 Q505.796875 175.107177734375 505.796875 175.591552734375 Q505.796875 176.013427734375 506.109375 176.294677734375 Q506.40625 176.560302734375 507.6796875 176.849365234375 Q508.953125 177.138427734375 509.421875 177.357177734375 Q510.109375 177.669677734375 510.4375 178.154052734375 Q510.765625 178.638427734375 510.765625 179.279052734375 Q510.765625 179.904052734375 510.40625 180.458740234375 Q510.046875 181.013427734375 509.3671875 181.325927734375 Q508.6875 181.638427734375 507.84375 181.638427734375 Q506.78125 181.638427734375 506.0625 181.325927734375 Q505.34375 181.013427734375 504.9296875 180.388427734375 Q504.515625 179.763427734375 504.5 178.966552734375 ZM513.84375 180.638427734375 L513.96875 181.482177734375 Q513.5625 181.575927734375 513.25 181.575927734375 Q512.71875 181.575927734375 512.4296875 181.404052734375 Q512.140625 181.232177734375 512.0234375 180.966552734375 Q511.90625 180.700927734375 511.90625 179.825927734375 L511.90625 176.544677734375 L511.1875 176.544677734375 L511.1875 175.794677734375 L511.90625 175.794677734375 L511.90625 174.388427734375 L512.859375 173.794677734375 L512.859375 175.794677734375 L513.84375 175.794677734375 L513.84375 176.544677734375 L512.859375 176.544677734375 L512.859375 179.888427734375 Q512.859375 180.294677734375 512.9140625 180.411865234375 Q512.96875 180.529052734375 513.0859375 180.599365234375 Q513.203125 180.669677734375 513.40625 180.669677734375 Q513.578125 180.669677734375 513.84375 180.638427734375 ZM514.71875 181.497802734375 L514.71875 175.794677734375 L515.578125 175.794677734375 L515.578125 176.654052734375 Q515.921875 176.044677734375 516.203125 175.857177734375 Q516.484375 175.669677734375 516.8125 175.669677734375 Q517.3125 175.669677734375 517.8125 175.982177734375 L517.484375 176.872802734375 Q517.125 176.669677734375 516.765625 176.669677734375 Q516.453125 176.669677734375 516.203125 176.857177734375 Q515.953125 177.044677734375 515.84375 177.388427734375 Q515.6875 177.904052734375 515.6875 178.513427734375 L515.6875 181.497802734375 L514.71875 181.497802734375 ZM518.734375 174.732177734375 L518.734375 173.622802734375 L519.703125 173.622802734375 L519.703125 174.732177734375 L518.734375 174.732177734375 ZM518.734375 181.497802734375 L518.734375 175.794677734375 L519.703125 175.794677734375 L519.703125 181.497802734375 L518.734375 181.497802734375 ZM520.71875 181.497802734375 L520.71875 175.794677734375 L521.59375 175.794677734375 L521.59375 176.607177734375 Q522.21875 175.669677734375 523.40625 175.669677734375 Q523.921875 175.669677734375 524.359375 175.849365234375 Q524.796875 176.029052734375 525.0078125 176.333740234375 Q525.21875 176.638427734375 525.3125 177.044677734375 Q525.359375 177.325927734375 525.359375 177.997802734375 L525.359375 181.497802734375 L524.390625 181.497802734375 L524.390625 178.029052734375 Q524.390625 177.435302734375 524.28125 177.146240234375 Q524.171875 176.857177734375 523.8828125 176.677490234375 Q523.59375 176.497802734375 523.203125 176.497802734375 Q522.59375 176.497802734375 522.140625 176.888427734375 Q521.6875 177.279052734375 521.6875 178.388427734375 L521.6875 181.497802734375 L520.71875 181.497802734375 ZM526.546875 181.966552734375 L527.484375 182.107177734375 Q527.546875 182.544677734375 527.8125 182.747802734375 Q528.171875 183.013427734375 528.796875 183.013427734375 Q529.46875 183.013427734375 529.8359375 182.747802734375 Q530.203125 182.482177734375 530.328125 181.997802734375 Q530.40625 181.700927734375 530.40625 180.747802734375 Q529.765625 181.497802734375 528.8125 181.497802734375 Q527.640625 181.497802734375 527 180.646240234375 Q526.359375 179.794677734375 526.359375 178.607177734375 Q526.359375 177.794677734375 526.65625 177.107177734375 Q526.953125 176.419677734375 527.5078125 176.044677734375 Q528.0625 175.669677734375 528.828125 175.669677734375 Q529.828125 175.669677734375 530.484375 176.482177734375 L530.484375 175.794677734375 L531.375 175.794677734375 L531.375 180.716552734375 Q531.375 182.060302734375 531.109375 182.614990234375 Q530.84375 183.169677734375 530.25 183.489990234375 Q529.65625 183.810302734375 528.796875 183.810302734375 Q527.78125 183.810302734375 527.15625 183.349365234375 Q526.53125 182.888427734375 526.546875 181.966552734375 ZM527.34375 178.544677734375 Q527.34375 179.669677734375 527.7890625 180.185302734375 Q528.234375 180.700927734375 528.90625 180.700927734375 Q529.578125 180.700927734375 530.03125 180.185302734375 Q530.484375 179.669677734375 530.484375 178.575927734375 Q530.484375 177.529052734375 530.015625 176.997802734375 Q529.546875 176.466552734375 528.890625 176.466552734375 Q528.25 176.466552734375 527.796875 176.989990234375 Q527.34375 177.513427734375 527.34375 178.544677734375 Z" clip-path="url(#clipPath1)" stroke="none" />
      <rect x="224" y="364" clip-path="url(#clipPath1)" width="73" height="51" stroke="none" />
      <rect x="224" y="364" clip-path="url(#clipPath1)" fill="none" width="73" height="51" stroke="rgb(66,66,66)" />
      <path fill="black" d="M240.84375 374.607177734375 L242.375 375.091552734375 Q242.03125 376.372802734375 241.203125 377.005615234375 Q240.375 377.638427734375 239.109375 377.638427734375 Q237.546875 377.638427734375 236.53125 376.560302734375 Q235.515625 375.482177734375 235.515625 373.622802734375 Q235.515625 371.669677734375 236.53125 370.575927734375 Q237.546875 369.482177734375 239.203125 369.482177734375 Q240.65625 369.482177734375 241.546875 370.341552734375 Q242.09375 370.841552734375 242.359375 371.794677734375 L240.78125 372.169677734375 Q240.640625 371.560302734375 240.203125 371.200927734375 Q239.765625 370.841552734375 239.125 370.841552734375 Q238.25 370.841552734375 237.703125 371.474365234375 Q237.15625 372.107177734375 237.15625 373.513427734375 Q237.15625 374.997802734375 237.6953125 375.638427734375 Q238.234375 376.279052734375 239.09375 376.279052734375 Q239.734375 376.279052734375 240.1875 375.872802734375 Q240.640625 375.466552734375 240.84375 374.607177734375 ZM244.921875 373.529052734375 L243.546875 373.279052734375 Q243.78125 372.466552734375 244.34375 372.068115234375 Q244.90625 371.669677734375 246.015625 371.669677734375 Q247.03125 371.669677734375 247.5234375 371.904052734375 Q248.015625 372.138427734375 248.21875 372.505615234375 Q248.421875 372.872802734375 248.421875 373.857177734375 L248.40625 375.622802734375 Q248.40625 376.372802734375 248.4765625 376.732177734375 Q248.546875 377.091552734375 248.75 377.497802734375 L247.25 377.497802734375 Q247.1875 377.341552734375 247.109375 377.044677734375 Q247.078125 376.919677734375 247.0625 376.872802734375 Q246.671875 377.247802734375 246.2265625 377.435302734375 Q245.78125 377.622802734375 245.28125 377.622802734375 Q244.40625 377.622802734375 243.8984375 377.146240234375 Q243.390625 376.669677734375 243.390625 375.935302734375 Q243.390625 375.450927734375 243.625 375.075927734375 Q243.859375 374.700927734375 244.2734375 374.497802734375 Q244.6875 374.294677734375 245.46875 374.138427734375 Q246.53125 373.950927734375 246.9375 373.779052734375 L246.9375 373.622802734375 Q246.9375 373.185302734375 246.71875 373.005615234375 Q246.5 372.825927734375 245.90625 372.825927734375 Q245.515625 372.825927734375 245.2890625 372.982177734375 Q245.0625 373.138427734375 244.921875 373.529052734375 ZM246.9375 374.763427734375 Q246.640625 374.857177734375 246.015625 374.989990234375 Q245.390625 375.122802734375 245.203125 375.247802734375 Q244.90625 375.466552734375 244.90625 375.779052734375 Q244.90625 376.107177734375 245.140625 376.333740234375 Q245.375 376.560302734375 245.734375 376.560302734375 Q246.140625 376.560302734375 246.515625 376.294677734375 Q246.796875 376.091552734375 246.875 375.794677734375 Q246.9375 375.607177734375 246.9375 375.060302734375 L246.9375 374.763427734375 ZM252.40625 371.794677734375 L252.40625 372.997802734375 L251.375 372.997802734375 L251.375 375.294677734375 Q251.375 375.997802734375 251.40625 376.114990234375 Q251.4375 376.232177734375 251.5390625 376.302490234375 Q251.640625 376.372802734375 251.796875 376.372802734375 Q252 376.372802734375 252.40625 376.232177734375 L252.53125 377.404052734375 Q252 377.622802734375 251.34375 377.622802734375 Q250.921875 377.622802734375 250.59375 377.489990234375 Q250.265625 377.357177734375 250.1171875 377.138427734375 Q249.96875 376.919677734375 249.90625 376.544677734375 Q249.859375 376.279052734375 249.859375 375.482177734375 L249.859375 372.997802734375 L249.171875 372.997802734375 L249.171875 371.794677734375 L249.859375 371.794677734375 L249.859375 370.654052734375 L251.375 369.779052734375 L251.375 371.794677734375 L252.40625 371.794677734375 ZM257.09375 375.685302734375 L258.59375 375.935302734375 Q258.3125 376.763427734375 257.6875 377.193115234375 Q257.0625 377.622802734375 256.109375 377.622802734375 Q254.625 377.622802734375 253.90625 376.654052734375 Q253.34375 375.872802734375 253.34375 374.685302734375 Q253.34375 373.263427734375 254.0859375 372.466552734375 Q254.828125 371.669677734375 255.96875 371.669677734375 Q257.234375 371.669677734375 257.96875 372.505615234375 Q258.703125 373.341552734375 258.671875 375.075927734375 L254.890625 375.075927734375 Q254.90625 375.747802734375 255.2578125 376.122802734375 Q255.609375 376.497802734375 256.125 376.497802734375 Q256.484375 376.497802734375 256.7265625 376.302490234375 Q256.96875 376.107177734375 257.09375 375.685302734375 ZM257.171875 374.154052734375 Q257.15625 373.497802734375 256.8359375 373.161865234375 Q256.515625 372.825927734375 256.0625 372.825927734375 Q255.5625 372.825927734375 255.234375 373.185302734375 Q254.921875 373.544677734375 254.921875 374.154052734375 L257.171875 374.154052734375 ZM260.65625 377.872802734375 L262.375 378.075927734375 Q262.421875 378.388427734375 262.578125 378.497802734375 Q262.78125 378.654052734375 263.25 378.654052734375 Q263.84375 378.654052734375 264.140625 378.482177734375 Q264.328125 378.357177734375 264.4375 378.107177734375 Q264.5 377.904052734375 264.5 377.404052734375 L264.5 376.575927734375 Q263.828125 377.497802734375 262.796875 377.497802734375 Q261.65625 377.497802734375 260.984375 376.529052734375 Q260.453125 375.763427734375 260.453125 374.607177734375 Q260.453125 373.185302734375 261.140625 372.427490234375 Q261.828125 371.669677734375 262.859375 371.669677734375 Q263.921875 371.669677734375 264.609375 372.591552734375 L264.609375 371.794677734375 L266.015625 371.794677734375 L266.015625 376.919677734375 Q266.015625 377.919677734375 265.8515625 378.419677734375 Q265.6875 378.919677734375 265.3828125 379.208740234375 Q265.078125 379.497802734375 264.578125 379.654052734375 Q264.078125 379.810302734375 263.3125 379.810302734375 Q261.859375 379.810302734375 261.25 379.318115234375 Q260.640625 378.825927734375 260.640625 378.060302734375 Q260.640625 377.982177734375 260.65625 377.872802734375 ZM262 374.529052734375 Q262 375.435302734375 262.3515625 375.857177734375 Q262.703125 376.279052734375 263.21875 376.279052734375 Q263.765625 376.279052734375 264.1484375 375.849365234375 Q264.53125 375.419677734375 264.53125 374.560302734375 Q264.53125 373.685302734375 264.1640625 373.255615234375 Q263.796875 372.825927734375 263.25 372.825927734375 Q262.703125 372.825927734375 262.3515625 373.247802734375 Q262 373.669677734375 262 374.529052734375 ZM267.4375 374.560302734375 Q267.4375 373.810302734375 267.8125 373.107177734375 Q268.1875 372.404052734375 268.8671875 372.036865234375 Q269.546875 371.669677734375 270.375 371.669677734375 Q271.671875 371.669677734375 272.5 372.505615234375 Q273.328125 373.341552734375 273.328125 374.622802734375 Q273.328125 375.919677734375 272.4921875 376.771240234375 Q271.65625 377.622802734375 270.390625 377.622802734375 Q269.609375 377.622802734375 268.8984375 377.271240234375 Q268.1875 376.919677734375 267.8125 376.232177734375 Q267.4375 375.544677734375 267.4375 374.560302734375 ZM268.984375 374.638427734375 Q268.984375 375.497802734375 269.390625 375.950927734375 Q269.796875 376.404052734375 270.390625 376.404052734375 Q270.96875 376.404052734375 271.375 375.950927734375 Q271.78125 375.497802734375 271.78125 374.638427734375 Q271.78125 373.794677734375 271.375 373.341552734375 Q270.96875 372.888427734375 270.390625 372.888427734375 Q269.796875 372.888427734375 269.390625 373.341552734375 Q268.984375 373.794677734375 268.984375 374.638427734375 ZM276.234375 377.497802734375 L274.71875 377.497802734375 L274.71875 371.794677734375 L276.125 371.794677734375 L276.125 372.607177734375 Q276.484375 372.029052734375 276.7734375 371.849365234375 Q277.0625 371.669677734375 277.421875 371.669677734375 Q277.9375 371.669677734375 278.421875 371.950927734375 L277.953125 373.263427734375 Q277.578125 373.013427734375 277.25 373.013427734375 Q276.921875 373.013427734375 276.703125 373.193115234375 Q276.484375 373.372802734375 276.359375 373.825927734375 Q276.234375 374.279052734375 276.234375 375.732177734375 L276.234375 377.497802734375 ZM279.078125 371.794677734375 L280.6875 371.794677734375 L282.046875 375.841552734375 L283.375 371.794677734375 L284.9375 371.794677734375 L282.921875 377.279052734375 L282.5625 378.279052734375 Q282.375 378.779052734375 282.1953125 379.044677734375 Q282.015625 379.310302734375 281.78125 379.466552734375 Q281.546875 379.622802734375 281.203125 379.716552734375 Q280.859375 379.810302734375 280.421875 379.810302734375 Q280 379.810302734375 279.578125 379.716552734375 L279.4375 378.544677734375 Q279.796875 378.607177734375 280.078125 378.607177734375 Q280.609375 378.607177734375 280.859375 378.302490234375 Q281.109375 377.997802734375 281.25 377.513427734375 L279.078125 371.794677734375 Z" clip-path="url(#clipPath1)" stroke="none" />
      <line clip-path="url(#clipPath1)" fill="none" x1="224" x2="297" y1="406" y2="406" stroke="rgb(66,66,66)" />
      <line clip-path="url(#clipPath1)" fill="none" x1="224" x2="297" y1="385" y2="385" stroke="rgb(66,66,66)" />
      <path fill="rgb(40,0,0)" d="M227.34375 396.138427734375 L227.34375 395.169677734375 L230.3125 395.169677734375 L230.3125 396.138427734375 L227.34375 396.138427734375 ZM231.71875 398.497802734375 L231.71875 392.794677734375 L232.59375 392.794677734375 L232.59375 393.607177734375 Q233.21875 392.669677734375 234.40625 392.669677734375 Q234.921875 392.669677734375 235.359375 392.849365234375 Q235.796875 393.029052734375 236.0078125 393.333740234375 Q236.21875 393.638427734375 236.3125 394.044677734375 Q236.359375 394.325927734375 236.359375 394.997802734375 L236.359375 398.497802734375 L235.390625 398.497802734375 L235.390625 395.029052734375 Q235.390625 394.435302734375 235.28125 394.146240234375 Q235.171875 393.857177734375 234.8828125 393.677490234375 Q234.59375 393.497802734375 234.203125 393.497802734375 Q233.59375 393.497802734375 233.140625 393.888427734375 Q232.6875 394.279052734375 232.6875 395.388427734375 L232.6875 398.497802734375 L231.71875 398.497802734375 ZM241.453125 397.794677734375 Q240.90625 398.247802734375 240.4140625 398.435302734375 Q239.921875 398.622802734375 239.34375 398.622802734375 Q238.40625 398.622802734375 237.8984375 398.161865234375 Q237.390625 397.700927734375 237.390625 396.997802734375 Q237.390625 396.575927734375 237.5859375 396.232177734375 Q237.78125 395.888427734375 238.0859375 395.677490234375 Q238.390625 395.466552734375 238.78125 395.357177734375 Q239.0625 395.279052734375 239.640625 395.216552734375 Q240.8125 395.075927734375 241.359375 394.872802734375 Q241.375 394.685302734375 241.375 394.622802734375 Q241.375 394.029052734375 241.09375 393.794677734375 Q240.734375 393.466552734375 240 393.466552734375 Q239.3125 393.466552734375 238.9921875 393.700927734375 Q238.671875 393.935302734375 238.515625 394.544677734375 L237.5625 394.419677734375 Q237.6875 393.810302734375 237.984375 393.435302734375 Q238.28125 393.060302734375 238.84375 392.864990234375 Q239.40625 392.669677734375 240.140625 392.669677734375 Q240.875 392.669677734375 241.328125 392.841552734375 Q241.78125 393.013427734375 241.9921875 393.271240234375 Q242.203125 393.529052734375 242.296875 393.919677734375 Q242.34375 394.169677734375 242.34375 394.825927734375 L242.34375 396.107177734375 Q242.34375 397.450927734375 242.40625 397.810302734375 Q242.46875 398.169677734375 242.65625 398.497802734375 L241.640625 398.497802734375 Q241.484375 398.200927734375 241.453125 397.794677734375 ZM241.359375 395.638427734375 Q240.84375 395.857177734375 239.78125 395.997802734375 Q239.1875 396.091552734375 238.9453125 396.193115234375 Q238.703125 396.294677734375 238.5625 396.505615234375 Q238.421875 396.716552734375 238.421875 396.966552734375 Q238.421875 397.357177734375 238.71875 397.614990234375 Q239.015625 397.872802734375 239.578125 397.872802734375 Q240.140625 397.872802734375 240.5703125 397.622802734375 Q241 397.372802734375 241.21875 396.950927734375 Q241.359375 396.622802734375 241.359375 395.982177734375 L241.359375 395.638427734375 ZM243.71875 398.497802734375 L243.71875 392.794677734375 L244.59375 392.794677734375 L244.59375 393.591552734375 Q244.859375 393.169677734375 245.3046875 392.919677734375 Q245.75 392.669677734375 246.3125 392.669677734375 Q246.953125 392.669677734375 247.359375 392.927490234375 Q247.765625 393.185302734375 247.9375 393.669677734375 Q248.609375 392.669677734375 249.6875 392.669677734375 Q250.546875 392.669677734375 251 393.138427734375 Q251.453125 393.607177734375 251.453125 394.575927734375 L251.453125 398.497802734375 L250.5 398.497802734375 L250.5 394.904052734375 Q250.5 394.325927734375 250.40625 394.068115234375 Q250.3125 393.810302734375 250.0625 393.654052734375 Q249.8125 393.497802734375 249.484375 393.497802734375 Q248.875 393.497802734375 248.4765625 393.904052734375 Q248.078125 394.310302734375 248.078125 395.185302734375 L248.078125 398.497802734375 L247.109375 398.497802734375 L247.109375 394.794677734375 Q247.109375 394.154052734375 246.875 393.825927734375 Q246.640625 393.497802734375 246.109375 393.497802734375 Q245.703125 393.497802734375 245.3515625 393.716552734375 Q245 393.935302734375 244.84375 394.349365234375 Q244.6875 394.763427734375 244.6875 395.544677734375 L244.6875 398.497802734375 L243.71875 398.497802734375 ZM255.625 396.654052734375 L256.625 396.779052734375 Q256.390625 397.654052734375 255.75 398.138427734375 Q255.109375 398.622802734375 254.125 398.622802734375 Q252.875 398.622802734375 252.140625 397.857177734375 Q251.40625 397.091552734375 251.40625 395.700927734375 Q251.40625 394.247802734375 252.1484375 393.458740234375 Q252.890625 392.669677734375 254.0625 392.669677734375 Q255.21875 392.669677734375 255.9375 393.443115234375 Q256.65625 394.216552734375 256.65625 395.638427734375 Q256.65625 395.716552734375 256.65625 395.888427734375 L252.40625 395.888427734375 Q252.453125 396.825927734375 252.9296875 397.325927734375 Q253.40625 397.825927734375 254.125 397.825927734375 Q254.65625 397.825927734375 255.03125 397.552490234375 Q255.40625 397.279052734375 255.625 396.654052734375 ZM252.453125 395.091552734375 L255.640625 395.091552734375 Q255.578125 394.372802734375 255.28125 394.013427734375 Q254.8125 393.466552734375 254.078125 393.466552734375 Q253.40625 393.466552734375 252.953125 393.911865234375 Q252.5 394.357177734375 252.453125 395.091552734375 ZM261 393.888427734375 L261 392.794677734375 L262.09375 392.794677734375 L262.09375 393.888427734375 L261 393.888427734375 ZM261 398.497802734375 L261 397.404052734375 L262.09375 397.404052734375 L262.09375 398.497802734375 L261 398.497802734375 ZM266.5 395.966552734375 L267.484375 395.888427734375 Q267.546875 396.466552734375 267.8046875 396.849365234375 Q268.0625 397.232177734375 268.59375 397.466552734375 Q269.125 397.700927734375 269.796875 397.700927734375 Q270.40625 397.700927734375 270.859375 397.521240234375 Q271.3125 397.341552734375 271.5390625 397.036865234375 Q271.765625 396.732177734375 271.765625 396.357177734375 Q271.765625 395.982177734375 271.546875 395.708740234375 Q271.328125 395.435302734375 270.828125 395.247802734375 Q270.515625 395.122802734375 269.4296875 394.864990234375 Q268.34375 394.607177734375 267.90625 394.372802734375 Q267.34375 394.075927734375 267.0703125 393.638427734375 Q266.796875 393.200927734375 266.796875 392.654052734375 Q266.796875 392.060302734375 267.1328125 391.544677734375 Q267.46875 391.029052734375 268.1171875 390.755615234375 Q268.765625 390.482177734375 269.5625 390.482177734375 Q270.4375 390.482177734375 271.109375 390.771240234375 Q271.78125 391.060302734375 272.140625 391.607177734375 Q272.5 392.154052734375 272.53125 392.841552734375 L271.53125 392.919677734375 Q271.453125 392.169677734375 270.984375 391.786865234375 Q270.515625 391.404052734375 269.609375 391.404052734375 Q268.671875 391.404052734375 268.234375 391.755615234375 Q267.796875 392.107177734375 267.796875 392.591552734375 Q267.796875 393.013427734375 268.109375 393.294677734375 Q268.40625 393.560302734375 269.6796875 393.849365234375 Q270.953125 394.138427734375 271.421875 394.357177734375 Q272.109375 394.669677734375 272.4375 395.154052734375 Q272.765625 395.638427734375 272.765625 396.279052734375 Q272.765625 396.904052734375 272.40625 397.458740234375 Q272.046875 398.013427734375 271.3671875 398.325927734375 Q270.6875 398.638427734375 269.84375 398.638427734375 Q268.78125 398.638427734375 268.0625 398.325927734375 Q267.34375 398.013427734375 266.9296875 397.388427734375 Q266.515625 396.763427734375 266.5 395.966552734375 ZM275.84375 397.638427734375 L275.96875 398.482177734375 Q275.5625 398.575927734375 275.25 398.575927734375 Q274.71875 398.575927734375 274.4296875 398.404052734375 Q274.140625 398.232177734375 274.0234375 397.966552734375 Q273.90625 397.700927734375 273.90625 396.825927734375 L273.90625 393.544677734375 L273.1875 393.544677734375 L273.1875 392.794677734375 L273.90625 392.794677734375 L273.90625 391.388427734375 L274.859375 390.794677734375 L274.859375 392.794677734375 L275.84375 392.794677734375 L275.84375 393.544677734375 L274.859375 393.544677734375 L274.859375 396.888427734375 Q274.859375 397.294677734375 274.9140625 397.411865234375 Q274.96875 397.529052734375 275.0859375 397.599365234375 Q275.203125 397.669677734375 275.40625 397.669677734375 Q275.578125 397.669677734375 275.84375 397.638427734375 ZM276.71875 398.497802734375 L276.71875 392.794677734375 L277.578125 392.794677734375 L277.578125 393.654052734375 Q277.921875 393.044677734375 278.203125 392.857177734375 Q278.484375 392.669677734375 278.8125 392.669677734375 Q279.3125 392.669677734375 279.8125 392.982177734375 L279.484375 393.872802734375 Q279.125 393.669677734375 278.765625 393.669677734375 Q278.453125 393.669677734375 278.203125 393.857177734375 Q277.953125 394.044677734375 277.84375 394.388427734375 Q277.6875 394.904052734375 277.6875 395.513427734375 L277.6875 398.497802734375 L276.71875 398.497802734375 ZM280.734375 391.732177734375 L280.734375 390.622802734375 L281.703125 390.622802734375 L281.703125 391.732177734375 L280.734375 391.732177734375 ZM280.734375 398.497802734375 L280.734375 392.794677734375 L281.703125 392.794677734375 L281.703125 398.497802734375 L280.734375 398.497802734375 ZM282.71875 398.497802734375 L282.71875 392.794677734375 L283.59375 392.794677734375 L283.59375 393.607177734375 Q284.21875 392.669677734375 285.40625 392.669677734375 Q285.921875 392.669677734375 286.359375 392.849365234375 Q286.796875 393.029052734375 287.0078125 393.333740234375 Q287.21875 393.638427734375 287.3125 394.044677734375 Q287.359375 394.325927734375 287.359375 394.997802734375 L287.359375 398.497802734375 L286.390625 398.497802734375 L286.390625 395.029052734375 Q286.390625 394.435302734375 286.28125 394.146240234375 Q286.171875 393.857177734375 285.8828125 393.677490234375 Q285.59375 393.497802734375 285.203125 393.497802734375 Q284.59375 393.497802734375 284.140625 393.888427734375 Q283.6875 394.279052734375 283.6875 395.388427734375 L283.6875 398.497802734375 L282.71875 398.497802734375 ZM288.546875 398.966552734375 L289.484375 399.107177734375 Q289.546875 399.544677734375 289.8125 399.747802734375 Q290.171875 400.013427734375 290.796875 400.013427734375 Q291.46875 400.013427734375 291.8359375 399.747802734375 Q292.203125 399.482177734375 292.328125 398.997802734375 Q292.40625 398.700927734375 292.40625 397.747802734375 Q291.765625 398.497802734375 290.8125 398.497802734375 Q289.640625 398.497802734375 289 397.646240234375 Q288.359375 396.794677734375 288.359375 395.607177734375 Q288.359375 394.794677734375 288.65625 394.107177734375 Q288.953125 393.419677734375 289.5078125 393.044677734375 Q290.0625 392.669677734375 290.828125 392.669677734375 Q291.828125 392.669677734375 292.484375 393.482177734375 L292.484375 392.794677734375 L293.375 392.794677734375 L293.375 397.716552734375 Q293.375 399.060302734375 293.109375 399.614990234375 Q292.84375 400.169677734375 292.25 400.489990234375 Q291.65625 400.810302734375 290.796875 400.810302734375 Q289.78125 400.810302734375 289.15625 400.349365234375 Q288.53125 399.888427734375 288.546875 398.966552734375 ZM289.34375 395.544677734375 Q289.34375 396.669677734375 289.7890625 397.185302734375 Q290.234375 397.700927734375 290.90625 397.700927734375 Q291.578125 397.700927734375 292.03125 397.185302734375 Q292.484375 396.669677734375 292.484375 395.575927734375 Q292.484375 394.529052734375 292.015625 393.997802734375 Q291.546875 393.466552734375 290.890625 393.466552734375 Q290.25 393.466552734375 289.796875 393.989990234375 Q289.34375 394.513427734375 289.34375 395.544677734375 Z" clip-path="url(#clipPath1)" stroke="none" />
    </g>
    <g stroke-linecap="butt" fill="rgb(66,66,66)" text-rendering="optimizeLegibility" stroke-linejoin="round" shape-rendering="geometricPrecision" stroke="rgb(66,66,66)">
      <line clip-path="url(#clipPath1)" fill="none" x1="462" x2="301" y1="184" y2="184" />
      <path fill="black" d="M438.09375 182.497802734375 L437.125 182.497802734375 L437.125 176.341552734375 Q436.78125 176.669677734375 436.21875 177.005615234375 Q435.65625 177.341552734375 435.203125 177.497802734375 L435.203125 176.560302734375 Q436.015625 176.185302734375 436.6171875 175.646240234375 Q437.21875 175.107177734375 437.46875 174.591552734375 L438.09375 174.591552734375 L438.09375 182.497802734375 Z" clip-path="url(#clipPath1)" stroke="none" />
      <path fill="black" d="M305.453125 178.607177734375 Q305.453125 177.216552734375 305.7421875 176.364990234375 Q306.03125 175.513427734375 306.6015625 175.052490234375 Q307.171875 174.591552734375 308.03125 174.591552734375 Q308.65625 174.591552734375 309.1328125 174.849365234375 Q309.609375 175.107177734375 309.921875 175.583740234375 Q310.234375 176.060302734375 310.4140625 176.755615234375 Q310.59375 177.450927734375 310.59375 178.607177734375 Q310.59375 179.997802734375 310.3046875 180.849365234375 Q310.015625 181.700927734375 309.453125 182.169677734375 Q308.890625 182.638427734375 308.03125 182.638427734375 Q306.890625 182.638427734375 306.234375 181.810302734375 Q305.453125 180.825927734375 305.453125 178.607177734375 ZM306.453125 178.607177734375 Q306.453125 180.560302734375 306.90625 181.200927734375 Q307.359375 181.841552734375 308.03125 181.841552734375 Q308.6875 181.841552734375 309.140625 181.193115234375 Q309.59375 180.544677734375 309.59375 178.607177734375 Q309.59375 176.669677734375 309.140625 176.029052734375 Q308.6875 175.388427734375 308.015625 175.388427734375 Q307.34375 175.388427734375 306.953125 175.950927734375 Q306.453125 176.669677734375 306.453125 178.607177734375 ZM312 182.497802734375 L312 181.404052734375 L313.09375 181.404052734375 L313.09375 182.497802734375 L312 182.497802734375 ZM315 182.497802734375 L315 181.404052734375 L316.09375 181.404052734375 L316.09375 182.497802734375 L315 182.497802734375 ZM317.34375 176.075927734375 L317.59375 175.310302734375 Q318.4375 175.607177734375 318.828125 175.825927734375 Q318.734375 174.857177734375 318.71875 174.482177734375 L319.5 174.482177734375 Q319.484375 175.013427734375 319.375 175.825927734375 Q319.9375 175.544677734375 320.640625 175.310302734375 L320.890625 176.075927734375 Q320.21875 176.294677734375 319.5625 176.372802734375 Q319.890625 176.654052734375 320.484375 177.388427734375 L319.84375 177.841552734375 Q319.53125 177.419677734375 319.09375 176.685302734375 Q318.703125 177.450927734375 318.40625 177.841552734375 L317.765625 177.388427734375 Q318.390625 176.622802734375 318.65625 176.372802734375 Q317.96875 176.232177734375 317.34375 176.075927734375 Z" clip-path="url(#clipPath1)" stroke="none" />
      <line clip-path="url(#clipPath1)" fill="none" x1="255" x2="255" y1="364" y2="222" />
      <path fill="black" d="M243.09375 362.497802734375 L242.125 362.497802734375 L242.125 356.341552734375 Q241.78125 356.669677734375 241.21875 357.005615234375 Q240.65625 357.341552734375 240.203125 357.497802734375 L240.203125 356.560302734375 Q241.015625 356.185302734375 241.6171875 355.646240234375 Q242.21875 355.107177734375 242.46875 354.591552734375 L243.09375 354.591552734375 L243.09375 362.497802734375 Z" clip-path="url(#clipPath1)" stroke="none" />
      <path fill="black" d="M239.453125 228.607177734375 Q239.453125 227.216552734375 239.7421875 226.364990234375 Q240.03125 225.513427734375 240.6015625 225.052490234375 Q241.171875 224.591552734375 242.03125 224.591552734375 Q242.65625 224.591552734375 243.1328125 224.849365234375 Q243.609375 225.107177734375 243.921875 225.583740234375 Q244.234375 226.060302734375 244.4140625 226.755615234375 Q244.59375 227.450927734375 244.59375 228.607177734375 Q244.59375 229.997802734375 244.3046875 230.849365234375 Q244.015625 231.700927734375 243.453125 232.169677734375 Q242.890625 232.638427734375 242.03125 232.638427734375 Q240.890625 232.638427734375 240.234375 231.810302734375 Q239.453125 230.825927734375 239.453125 228.607177734375 ZM240.453125 228.607177734375 Q240.453125 230.560302734375 240.90625 231.200927734375 Q241.359375 231.841552734375 242.03125 231.841552734375 Q242.6875 231.841552734375 243.140625 231.193115234375 Q243.59375 230.544677734375 243.59375 228.607177734375 Q243.59375 226.669677734375 243.140625 226.029052734375 Q242.6875 225.388427734375 242.015625 225.388427734375 Q241.34375 225.388427734375 240.953125 225.950927734375 Q240.453125 226.669677734375 240.453125 228.607177734375 ZM246 232.497802734375 L246 231.404052734375 L247.09375 231.404052734375 L247.09375 232.497802734375 L246 232.497802734375 ZM249 232.497802734375 L249 231.404052734375 L250.09375 231.404052734375 L250.09375 232.497802734375 L249 232.497802734375 ZM251.34375 226.075927734375 L251.59375 225.310302734375 Q252.4375 225.607177734375 252.828125 225.825927734375 Q252.734375 224.857177734375 252.71875 224.482177734375 L253.5 224.482177734375 Q253.484375 225.013427734375 253.375 225.825927734375 Q253.9375 225.544677734375 254.640625 225.310302734375 L254.890625 226.075927734375 Q254.21875 226.294677734375 253.5625 226.372802734375 Q253.890625 226.654052734375 254.484375 227.388427734375 L253.84375 227.841552734375 Q253.53125 227.419677734375 253.09375 226.685302734375 Q252.703125 227.450927734375 252.40625 227.841552734375 L251.765625 227.388427734375 Q252.390625 226.622802734375 252.65625 226.372802734375 Q251.96875 226.232177734375 251.34375 226.075927734375 Z" clip-path="url(#clipPath1)" stroke="none" />
    </g>
  </g>
</svg>
